<?xml version="1.0" standalone="no"?>
<!DOCTYPE svg PUBLIC "-//W3C//DTD SVG 20010904//EN"
 "http://www.w3.org/TR/2001/REC-SVG-20010904/DTD/svg10.dtd">
<svg version="1.0" xmlns="http://www.w3.org/2000/svg"
 width="1080.000000pt" height="1920.000000pt" viewBox="0 0 1080.000000 1920.000000"
 preserveAspectRatio="xMidYMid meet">

<g transform="translate(0.000000,1920.000000) scale(0.100000,-0.100000)"
fill="#000000" stroke="none">
<path d="M5013 14543 c3 -27 16 -216 28 -422 l23 -373 50 7 c28 3 52 7 53 8 1
2 -9 173 -22 382 -14 209 -25 395 -25 413 l0 32 -56 0 -57 0 6 -47z"/>
<path d="M6782 14373 c-41 -20 -75 -64 -94 -123 -16 -47 -17 -47 -79 -35 -33
6 -37 4 -43 -18 -3 -14 -9 -32 -12 -41 -4 -12 5 -18 40 -27 26 -6 48 -14 50
-18 2 -3 -27 -114 -64 -246 l-67 -240 31 -12 c70 -26 65 -35 135 220 35 127
68 236 72 241 7 8 43 1 150 -30 12 -3 19 6 27 36 7 31 7 42 -1 45 -7 2 -39 11
-72 20 -33 9 -65 18 -72 20 -18 6 5 81 36 111 22 22 32 25 69 21 24 -3 57 -14
72 -25 l27 -21 23 31 c30 40 20 56 -51 85 -64 27 -131 29 -177 6z"/>
<path d="M5487 14346 c-118 -44 -189 -153 -189 -292 0 -126 59 -217 176 -270
86 -39 197 -40 276 -2 93 44 95 47 64 90 l-26 36 -35 -24 c-101 -69 -238 -49
-314 46 -16 19 -31 50 -35 68 l-7 33 204 -7 c313 -12 283 -14 287 23 5 51 -25
152 -61 201 -19 26 -54 57 -86 75 -46 26 -67 31 -135 34 -52 2 -94 -2 -119
-11z m211 -103 c40 -26 92 -105 92 -140 0 -10 -37 -12 -182 -7 -101 3 -189 8
-196 10 -32 10 30 114 85 143 59 31 148 28 201 -6z"/>
<path d="M3850 14326 c-162 -45 -251 -134 -252 -250 0 -49 17 -104 44 -137 7
-9 33 -27 58 -39 43 -23 54 -24 217 -21 194 3 222 -4 250 -63 46 -98 -84 -198
-262 -200 -44 -1 -99 3 -121 7 l-42 8 -3 -45 -4 -45 42 -10 c61 -16 176 -13
246 5 118 30 212 96 243 170 27 65 11 167 -34 217 -42 46 -68 52 -275 57
l-199 5 -30 34 c-26 29 -29 39 -25 74 12 92 119 149 280 150 l97 1 0 42 c0 29
-5 44 -16 48 -27 10 -167 5 -214 -8z"/>
<path d="M4524 14286 c-72 -17 -150 -54 -182 -89 l-23 -24 26 -32 27 -31 32
25 c55 42 117 65 179 65 68 0 111 -19 130 -58 15 -28 30 -82 24 -82 -27 0
-239 -45 -265 -56 -97 -40 -137 -135 -98 -229 49 -116 269 -128 373 -20 l41
43 7 -35 c6 -35 7 -35 51 -30 25 2 47 6 49 8 7 7 -64 394 -79 429 -43 105
-152 147 -292 116z m235 -370 c2 -84 -78 -150 -182 -151 -54 0 -61 3 -88 33
-46 51 -36 107 23 138 17 9 76 24 132 33 114 19 114 19 115 -53z"/>
<path d="M6149 14289 c-62 -9 -106 -33 -129 -71 -42 -70 -33 -145 24 -196 18
-16 81 -48 140 -71 142 -58 170 -95 117 -154 -37 -43 -237 -2 -307 64 l-21 20
-27 -35 c-14 -19 -26 -38 -26 -43 0 -5 22 -22 48 -40 113 -74 279 -97 370 -51
61 30 84 65 90 131 4 51 2 57 -32 95 -29 32 -58 48 -134 77 -53 21 -112 49
-129 62 -41 30 -44 69 -7 104 22 21 34 24 89 22 66 -2 142 -28 178 -61 18 -16
20 -15 48 16 16 18 29 36 29 41 0 13 -59 48 -111 67 -59 21 -154 31 -210 23z"/>
<path d="M2953 14003 c-50 -28 -55 -10 52 -194 36 -61 64 -113 63 -115 -2 -1
-23 2 -48 6 -49 9 -114 -1 -162 -26 -46 -24 -117 -94 -141 -139 -30 -57 -31
-181 0 -247 27 -59 95 -134 145 -159 151 -77 348 -3 406 153 l19 50 21 -36
c12 -20 25 -36 29 -36 4 0 25 10 45 23 l37 22 -208 357 c-114 197 -209 359
-211 361 -3 2 -24 -7 -47 -20z m120 -397 c39 -16 92 -66 113 -109 25 -48 30
-137 9 -178 -33 -64 -86 -105 -158 -123 -49 -12 -130 18 -170 63 -64 71 -82
127 -66 203 12 53 67 118 121 142 43 19 110 20 151 2z"/>
<path d="M7100 14007 c-135 -38 -220 -156 -220 -305 0 -134 82 -240 221 -283
113 -35 205 -17 288 57 125 112 144 290 45 417 -70 90 -228 143 -334 114z
m180 -109 c68 -35 103 -86 108 -157 5 -74 -10 -123 -56 -173 -48 -53 -80 -68
-147 -68 -181 0 -267 192 -152 341 18 23 48 50 67 60 49 26 125 25 180 -3z"/>
<path d="M7598 13519 l-146 -259 46 -24 46 -24 84 147 c94 165 103 176 154
202 47 24 101 24 154 0 l41 -19 23 41 c22 39 22 41 4 54 -41 30 -115 40 -173
23 -19 -5 -36 -8 -38 -6 -2 2 6 20 18 40 12 20 20 38 18 40 -2 2 -22 13 -45
24 l-41 21 -145 -260z"/>
<path d="M8083 13434 c-61 -23 -127 -86 -162 -156 -60 -119 -37 -250 60 -347
72 -71 165 -107 243 -96 65 10 70 15 51 62 l-16 40 -48 -5 c-27 -2 -65 1 -85
8 -46 15 -123 100 -132 146 -24 131 78 264 202 264 68 0 94 -11 148 -60 33
-31 47 -53 56 -89 10 -43 15 -50 42 -55 55 -11 58 -9 58 37 -1 87 -70 181
-172 233 -66 34 -180 42 -245 18z"/>
<path d="M2363 13309 c-58 -11 -91 -30 -145 -86 -52 -53 -78 -105 -78 -155
l-1 -33 -32 37 -32 37 -38 -32 -37 -32 185 -228 c103 -125 189 -227 193 -227
4 0 24 14 44 30 l37 31 -106 127 c-141 170 -164 223 -129 305 18 43 82 104
124 118 78 26 122 -3 267 -181 58 -71 110 -132 116 -135 10 -6 77 43 78 58 1
9 -172 222 -231 285 -66 70 -135 96 -215 81z"/>
<path d="M8582 13031 c-67 -25 -122 -69 -161 -128 -41 -61 -54 -114 -48 -189
11 -141 143 -278 290 -299 l47 -7 0 30 c0 17 2 37 6 45 4 10 -6 16 -36 21 -58
9 -111 38 -150 82 -42 48 -60 92 -60 148 0 42 26 116 40 116 3 0 35 -30 70
-66 36 -36 114 -111 174 -167 l109 -102 38 43 c71 80 93 210 52 303 -64 144
-233 221 -371 170z m210 -110 c79 -54 110 -159 73 -242 -10 -21 -21 -39 -24
-39 -3 1 -69 61 -145 134 l-140 134 40 21 c54 29 147 25 196 -8z"/>
<path d="M1782 12784 c-61 -23 -145 -103 -173 -166 -32 -72 -32 -164 0 -235
28 -63 102 -135 168 -165 106 -46 244 -16 333 73 65 65 91 118 98 196 l5 63
-40 0 c-40 0 -41 -1 -47 -41 -16 -99 -98 -189 -191 -210 -47 -10 -60 -10 -100
5 -25 10 -45 21 -45 25 0 4 72 88 160 187 l161 179 -28 23 c-87 72 -211 99
-301 66z m158 -90 c22 -9 40 -20 40 -25 0 -4 -57 -72 -127 -149 l-127 -141
-23 38 c-61 101 -6 239 112 281 44 15 79 14 125 -4z"/>
<path d="M1361 12337 l-34 -52 32 -213 c18 -118 30 -216 28 -219 -3 -2 -99 58
-214 134 -114 77 -213 143 -220 147 -15 9 -70 -71 -57 -83 20 -18 685 -463
688 -460 1 2 14 23 29 46 l27 43 -69 46 -69 46 -12 80 c-6 44 -10 82 -8 84 4
3 304 34 338 34 14 0 86 98 78 106 -2 1 -100 -5 -218 -15 -118 -10 -216 -18
-217 -17 -1 0 -16 78 -35 173 l-33 172 -34 -52z"/>
<path d="M9415 12362 c-205 -20 -362 -177 -373 -373 -11 -195 114 -381 293
-435 50 -15 43 -21 60 60 4 21 0 26 -33 37 -132 43 -214 157 -216 299 -2 128
60 222 184 278 193 89 414 -55 428 -279 l4 -76 43 -10 c40 -9 44 -8 49 11 12
43 5 125 -14 181 -66 192 -250 324 -425 307z"/>
<path d="M1042 11707 c-55 -17 -126 -89 -157 -159 -24 -51 -29 -77 -29 -138
-1 -91 23 -149 83 -208 68 -66 122 -87 221 -87 76 0 91 3 139 30 143 79 216
292 138 399 -14 19 -15 19 -51 -4 -27 -16 -35 -27 -30 -39 3 -9 9 -40 12 -68
9 -100 -67 -201 -165 -219 -78 -15 -185 38 -229 111 -53 92 -16 228 76 276 19
10 42 20 50 22 12 4 14 16 12 51 -4 50 -9 53 -70 33z"/>
<path d="M9627 11590 c-91 -23 -174 -90 -211 -169 -15 -34 -21 -66 -21 -121 0
-65 4 -84 33 -142 60 -122 161 -184 285 -176 164 11 289 135 291 288 2 213
-181 369 -377 320z m136 -101 c49 -13 105 -63 128 -114 52 -114 -9 -239 -140
-283 -121 -42 -248 42 -259 172 -2 29 1 69 7 87 20 62 92 122 166 140 43 10
56 10 98 -2z"/>
<path d="M743 11035 c-48 -22 -100 -82 -125 -144 -18 -45 -22 -76 -23 -163 0
-58 3 -109 6 -112 4 -4 25 -4 48 0 40 6 42 8 36 36 -21 94 2 197 55 250 33 34
43 38 86 38 80 0 81 -2 40 -128 -52 -161 -46 -249 19 -300 95 -75 222 -34 275
90 30 71 37 152 16 202 -9 21 -16 40 -16 43 0 4 25 -2 56 -14 10 -3 50 87 41
92 -1 1 -85 28 -187 60 -198 62 -274 74 -327 50z m314 -160 c75 -49 72 -215
-5 -275 -35 -28 -87 -26 -117 5 -34 33 -32 81 6 201 l31 96 31 -6 c17 -3 41
-13 54 -21z"/>
<path d="M9882 10882 l-282 -65 6 -36 c14 -74 2 -72 179 -30 88 21 180 38 205
38 98 1 170 -77 170 -186 0 -44 -5 -58 -31 -88 -35 -39 -56 -47 -274 -96 -77
-17 -143 -34 -147 -38 -4 -3 -2 -27 3 -53 9 -42 13 -47 32 -43 12 3 81 19 152
36 207 49 267 43 329 -34 25 -31 31 -49 34 -100 4 -57 1 -66 -23 -95 -39 -46
-59 -54 -257 -101 -98 -24 -178 -45 -178 -47 0 -13 23 -94 26 -94 3 0 84 18
182 40 207 47 272 76 317 138 27 40 30 51 30 126 0 72 -4 89 -31 142 -20 38
-47 71 -76 93 l-46 34 26 40 c34 51 42 143 18 215 -18 54 -75 127 -106 137
-28 9 -17 21 26 29 34 7 35 9 29 39 -10 51 -16 67 -23 66 -4 0 -134 -30 -290
-67z"/>
<path d="M423 10420 c-65 -15 -120 -70 -148 -151 -13 -37 -75 -394 -75 -433 0
-9 113 -30 385 -71 211 -32 386 -57 389 -54 2 2 18 99 36 214 38 247 37 319
-4 388 -33 57 -81 87 -150 94 -82 9 -144 -22 -187 -91 -17 -27 -19 -28 -25
-10 -29 80 -133 134 -221 114z m129 -139 c28 -24 32 -36 36 -90 4 -60 -23
-289 -37 -303 -6 -7 -240 28 -249 36 -4 5 38 258 49 294 6 17 24 46 41 62 25
25 37 30 79 30 39 0 55 -5 81 -29z m332 5 c41 -17 66 -67 66 -133 0 -26 -10
-110 -22 -185 -19 -127 -23 -138 -42 -138 -30 1 -235 35 -240 41 -6 6 40 291
53 332 27 80 106 116 185 83z"/>
<path d="M9830 9687 l0 -57 155 0 c84 0 177 -5 205 -11 55 -12 103 -46 125
-90 22 -42 19 -137 -5 -177 -34 -55 -65 -62 -290 -62 l-200 0 0 -48 0 -48 193
-10 c208 -10 237 -18 280 -75 43 -59 38 -170 -10 -221 -40 -42 -105 -51 -303
-42 l-170 7 0 -57 0 -57 228 3 c245 3 257 6 314 62 44 45 62 94 62 171 0 85
-15 131 -60 191 l-34 44 34 31 c93 81 94 268 3 367 l-22 24 45 -3 45 -4 3 53
3 52 -194 0 c-107 0 -242 3 -300 7 l-107 6 0 -56z"/>
<path d="M373 9245 c8 -57 40 -120 72 -141 37 -24 31 -34 -21 -34 l-47 0 7
-47 c3 -25 7 -47 9 -49 1 -1 126 4 277 12 151 7 283 13 293 14 14 0 17 9 17
53 l0 52 -172 -8 c-196 -10 -239 -3 -286 47 -35 35 -52 74 -52 117 0 28 -1 29
-51 29 l-52 0 6 -45z"/>
<path d="M697 8786 l-289 -51 7 -50 c3 -27 7 -51 9 -52 1 -2 78 11 171 28 185
34 231 33 287 -4 44 -29 78 -98 78 -158 0 -54 -29 -103 -75 -131 -17 -9 -113
-32 -214 -50 l-183 -33 7 -50 c3 -27 7 -51 9 -52 4 -4 380 67 410 77 47 16 94
58 118 103 25 48 30 144 10 213 -14 47 -57 107 -89 125 -33 18 -29 26 17 33
l41 6 -7 38 c-4 20 -9 42 -13 48 -4 7 -101 -6 -294 -40z"/>
<path d="M9912 8601 c-69 -24 -119 -65 -159 -131 -58 -95 -68 -231 -24 -317
l21 -42 38 22 39 21 -20 45 c-37 85 -8 203 68 269 39 35 67 45 112 40 l30 -3
-50 -228 c-39 -178 -47 -231 -38 -240 8 -7 43 -12 94 -11 69 0 90 4 133 27
100 51 155 148 155 271 0 142 -83 242 -236 282 -66 18 -99 17 -163 -5z m252
-151 c56 -52 71 -101 56 -176 -19 -92 -90 -154 -175 -154 -19 0 -35 2 -35 5 0
5 61 282 75 343 8 32 30 27 79 -18z"/>
<path d="M1020 8098 c-11 -18 -20 -36 -20 -39 0 -4 16 -17 35 -30 81 -55 119
-202 75 -288 -22 -43 -79 -96 -90 -84 -4 4 -40 105 -80 223 -40 118 -77 219
-81 224 -5 5 -36 -4 -73 -23 -116 -57 -173 -153 -164 -275 18 -221 229 -347
428 -254 161 75 218 245 140 421 -25 56 -81 122 -122 143 -27 14 -29 14 -48
-18z m-137 -281 c31 -95 57 -178 57 -185 0 -17 -69 -15 -111 2 -94 40 -145
165 -105 259 12 30 77 97 94 97 4 0 33 -78 65 -173z"/>
<path d="M9598 7942 l-15 -48 165 -59 c132 -47 173 -66 202 -94 46 -44 63 -99
50 -156 -14 -59 -14 -59 35 -77 l45 -17 11 42 c14 51 6 130 -16 164 -22 33
-15 37 30 19 21 -9 39 -16 40 -16 4 0 36 93 32 96 -3 3 -552 194 -558 194 -3
0 -12 -22 -21 -48z"/>
<path d="M9524 7529 c-72 -27 -128 -79 -164 -152 -37 -75 -47 -150 -30 -212
18 -64 31 -71 74 -43 24 15 34 28 30 38 -32 77 -19 150 37 214 54 62 113 83
184 69 72 -16 129 -53 161 -108 22 -39 26 -54 22 -104 -6 -86 -45 -146 -115
-178 -46 -21 -54 -28 -49 -47 3 -11 6 -31 6 -43 0 -30 21 -29 85 1 60 27 109
80 144 156 34 74 35 182 2 252 -68 143 -241 213 -387 157z"/>
<path d="M1105 7480 c-86 -28 -153 -83 -190 -155 -74 -144 -7 -335 140 -400
l50 -23 -37 -18 c-21 -10 -38 -21 -38 -26 0 -16 34 -78 44 -78 8 0 703 356
715 366 5 5 -30 83 -40 90 -5 3 -70 -28 -145 -67 -102 -54 -135 -68 -129 -53
4 10 10 46 12 79 4 46 0 71 -17 110 -66 154 -214 225 -365 175z m184 -110
c112 -57 151 -203 79 -296 -54 -69 -113 -97 -194 -92 -105 7 -177 74 -191 178
-20 149 170 280 306 210z"/>
<path d="M9260 7001 c-96 -19 -183 -93 -231 -194 -23 -50 -29 -76 -29 -129 l0
-68 33 0 c46 0 54 9 55 61 2 68 28 124 83 173 60 54 118 72 177 56 23 -6 42
-15 42 -21 0 -5 -59 -97 -130 -205 -72 -107 -129 -198 -126 -202 3 -5 31 -21
63 -38 48 -24 70 -29 128 -29 145 1 253 87 290 233 40 155 -63 313 -231 357
-62 16 -70 16 -124 6z m254 -226 c50 -105 -14 -243 -128 -274 -40 -10 -136 2
-136 18 0 4 48 79 106 165 101 150 107 157 124 141 10 -9 26 -32 34 -50z"/>
<path d="M1542 6848 c-67 -10 -103 -29 -165 -87 -100 -93 -125 -216 -69 -336
44 -91 136 -165 207 -165 33 0 32 -11 -5 -38 -16 -13 -30 -26 -30 -30 0 -4 13
-23 28 -42 l29 -34 326 243 327 243 -28 39 c-15 21 -30 39 -34 39 -5 0 -59
-38 -122 -85 -63 -47 -117 -85 -119 -85 -3 0 -7 30 -9 68 -10 178 -157 296
-336 270z m163 -133 c78 -59 104 -120 90 -211 -5 -39 -16 -56 -58 -98 -53 -53
-104 -76 -165 -76 -77 0 -173 83 -187 163 -4 20 -4 58 0 84 5 38 16 55 60 99
29 29 68 57 86 63 56 17 135 6 174 -24z"/>
<path d="M1992 6266 c-175 -57 -264 -257 -188 -418 29 -62 100 -133 163 -164
22 -10 68 -20 110 -22 60 -3 80 0 126 21 123 56 192 158 191 282 -1 84 -23
140 -83 207 -78 88 -214 128 -319 94z m169 -100 c85 -35 133 -106 132 -194 0
-67 -39 -132 -107 -179 -85 -58 -191 -43 -260 39 -19 21 -39 60 -45 85 -39
151 138 308 280 249z"/>
<path d="M8586 6199 c-156 -37 -307 -203 -323 -354 l-6 -55 52 0 c50 0 51 1
51 30 0 59 38 135 95 189 72 68 131 94 215 95 114 1 228 -73 281 -182 31 -65
33 -178 2 -243 -45 -100 -137 -172 -242 -190 l-61 -11 0 -49 0 -49 43 6 c166
23 280 106 351 254 29 60 31 73 31 170 0 93 -3 112 -26 161 -82 174 -279 271
-463 228z"/>
<path d="M2352 5573 l-260 -328 37 -32 c20 -18 39 -32 42 -33 5 0 511 636 517
650 2 4 -15 22 -37 39 l-39 31 -260 -327z"/>
<path d="M8048 5792 c-21 -15 -38 -30 -38 -33 0 -3 112 -155 248 -337 l249
-331 42 30 41 31 -32 44 c-18 24 -130 174 -248 333 -118 160 -217 290 -220
290 -3 0 -22 -12 -42 -27z"/>
<path d="M2775 5665 c-6 -3 -9 -23 -7 -45 l4 -40 48 0 c99 0 184 -51 226 -135
21 -44 25 -65 21 -101 -2 -25 -9 -50 -15 -56 -8 -8 -67 25 -200 110 -104 67
-196 124 -205 128 -13 5 -23 -8 -47 -57 -24 -52 -30 -77 -30 -134 0 -146 91
-252 247 -286 137 -31 281 59 335 209 68 188 -88 401 -301 409 -36 1 -71 0
-76 -2z m72 -352 c103 -65 153 -102 151 -112 -2 -9 -29 -29 -61 -45 -55 -28
-59 -29 -113 -17 -94 21 -164 101 -164 185 0 37 15 86 26 86 4 0 76 -44 161
-97z"/>
<path d="M7719 5565 c-205 -66 -289 -289 -174 -462 110 -165 320 -187 473 -48
151 136 116 389 -67 489 -64 34 -163 43 -232 21z m187 -117 c102 -69 134 -204
70 -297 -34 -48 -113 -91 -168 -91 -113 0 -211 104 -211 224 0 110 88 195 204
196 48 0 64 -5 105 -32z"/>
<path d="M3270 5113 l-241 -218 38 -17 c21 -9 44 -17 50 -17 7 -1 98 76 203
170 105 94 192 170 194 168 1 -2 0 -120 -3 -261 l-6 -256 44 -22 c24 -11 46
-18 50 -15 3 4 8 149 10 323 l3 317 -46 23 c-26 12 -49 22 -51 22 -2 0 -113
-98 -245 -217z"/>
<path d="M7087 5255 c-75 -28 -144 -91 -164 -150 l-10 -30 -18 43 c-9 23 -19
42 -21 42 -14 0 -84 -34 -84 -40 0 -26 214 -540 225 -540 15 0 85 28 85 34 0
3 -29 79 -65 169 -71 180 -77 216 -44 284 37 77 158 125 226 90 55 -29 87 -91
204 -394 8 -22 9 -22 54 -6 25 10 45 22 45 28 0 19 -121 319 -145 361 -62 107
-176 150 -288 109z"/>
<path d="M3955 5123 c-23 -5 -95 -35 -95 -39 0 -2 8 -19 17 -39 14 -29 21 -35
38 -30 76 24 106 26 157 11 104 -30 168 -102 168 -190 0 -36 -3 -47 -14 -43
-7 3 -107 33 -222 68 -115 34 -214 64 -221 66 -16 6 -33 -59 -33 -128 0 -163
111 -275 286 -287 61 -4 80 -1 126 20 187 86 242 343 105 486 -74 77 -218 126
-312 105z m60 -343 c228 -67 207 -57 190 -90 -42 -80 -166 -116 -252 -71 -50
25 -89 70 -103 119 -17 62 -12 95 13 87 7 -2 75 -23 152 -45z"/>
<path d="M6362 5021 c-58 -20 -82 -38 -123 -94 l-28 -39 -12 47 c-8 31 -16 44
-25 41 -7 -3 -29 -8 -49 -12 -27 -5 -34 -10 -31 -23 3 -9 44 -191 92 -406 48
-214 88 -391 89 -393 2 -2 23 2 49 9 31 8 46 17 46 28 0 9 -14 78 -31 154 -17
76 -29 140 -27 143 3 3 23 -5 44 -18 73 -43 215 -26 296 35 118 89 148 250 75
395 -62 126 -220 183 -365 133z m196 -103 c141 -86 134 -306 -11 -374 -62 -29
-117 -30 -174 -5 -100 46 -150 199 -98 301 49 96 190 135 283 78z"/>
<path d="M4730 4939 c-128 -22 -235 -102 -287 -213 -26 -56 -28 -71 -28 -176
0 -110 1 -118 32 -175 47 -92 122 -154 226 -191 46 -16 427 -67 436 -58 8 7
101 768 95 773 -5 6 -256 37 -349 44 -38 3 -95 1 -125 -4z m243 -103 c59 -8
110 -16 112 -18 2 -2 -11 -130 -30 -283 -19 -154 -35 -286 -35 -294 0 -15 -83
-10 -223 14 -159 28 -252 109 -276 242 -10 54 2 151 25 194 35 68 106 126 184
150 39 11 124 10 243 -5z"/>
<path d="M5570 4893 c-40 -52 -9 -117 56 -117 66 0 95 65 53 118 -29 37 -80
36 -109 -1z"/>
</g>
</svg>
